<svg width="20" height="20" viewBox="0 0 20 20" fill="none" xmlns="http://www.w3.org/2000/svg">
<path d="M16.25 15.582C18.5352 13.9766 20 11.5156 20 8.75C20 3.91797 15.5234 0 10 0C4.47656 0 0 3.91797 0 8.75C0 11.5117 1.46484 13.9766 3.75 15.582C3.75 15.5977 3.75 15.6094 3.75 15.625V18.125C3.75 19.1602 4.58984 20 5.625 20H7.5V18.125C7.5 17.7812 7.78125 17.5 8.125 17.5C8.46875 17.5 8.75 17.7812 8.75 18.125V20H11.25V18.125C11.25 17.7812 11.5312 17.5 11.875 17.5C12.2188 17.5 12.5 17.7812 12.5 18.125V20H14.375C15.4102 20 16.25 19.1602 16.25 18.125V15.625C16.25 15.6094 16.25 15.5977 16.25 15.582ZM3.75 10C3.75 9.33696 4.01339 8.70107 4.48223 8.23223C4.95107 7.76339 5.58696 7.5 6.25 7.5C6.91304 7.5 7.54893 7.76339 8.01777 8.23223C8.48661 8.70107 8.75 9.33696 8.75 10C8.75 10.663 8.48661 11.2989 8.01777 11.7678C7.54893 12.2366 6.91304 12.5 6.25 12.5C5.58696 12.5 4.95107 12.2366 4.48223 11.7678C4.01339 11.2989 3.75 10.663 3.75 10ZM13.75 7.5C14.413 7.5 15.0489 7.76339 15.5178 8.23223C15.9866 8.70107 16.25 9.33696 16.25 10C16.25 10.663 15.9866 11.2989 15.5178 11.7678C15.0489 12.2366 14.413 12.5 13.75 12.5C13.087 12.5 12.4511 12.2366 11.9822 11.7678C11.5134 11.2989 11.25 10.663 11.25 10C11.25 9.33696 11.5134 8.70107 11.9822 8.23223C12.4511 7.76339 13.087 7.5 13.75 7.5Z" fill="#FF975C"/>
</svg>
